<svg xmlns="http://www.w3.org/2000/svg" xmlns:xlink="http://www.w3.org/1999/xlink" width="31.986" height="32" viewBox="0 0 31.986 32"><defs><style>.a{fill:none;}.b{clip-path:url(#a);}.c{fill:#fc0;}</style><clipPath id="a"><rect class="a" width="31.986" height="32"/></clipPath></defs><g transform="translate(57.35 57.375)"><g class="b" transform="translate(-57.35 -57.375)"><path class="c" d="M60.6,1.8V9.445a1.813,1.813,0,0,0,3.1,1.283l5.382-5.41a1.813,1.813,0,0,0-.251-2.761A16.146,16.146,0,0,0,62.747.019,1.813,1.813,0,0,0,60.6,1.8" transform="translate(-43.701 0.008)"/><path class="c" d="M10.728,27.755l-5.41-5.41a1.813,1.813,0,0,0-2.761.251A16.146,16.146,0,0,0,.019,28.7,1.813,1.813,0,0,0,1.8,30.851H9.445a1.813,1.813,0,0,0,1.283-3.1" transform="translate(0.008 -15.736)"/><path class="c" d="M9.445,60.6H1.8A1.813,1.813,0,0,0,.019,62.747a16.174,16.174,0,0,0,2.538,6.107,1.813,1.813,0,0,0,2.761.251l5.41-5.41a1.813,1.813,0,0,0-1.283-3.1" transform="translate(0.008 -43.701)"/><path class="c" d="M30.823,9.458V1.817A1.813,1.813,0,0,0,28.7.032,16.174,16.174,0,0,0,22.6,2.57a1.813,1.813,0,0,0-.251,2.761l5.41,5.41a1.813,1.813,0,0,0,3.1-1.283" transform="translate(-15.736 -0.004)"/><path class="c" d="M27.755,74.824l-5.41,5.41A1.813,1.813,0,0,0,22.6,83,16.146,16.146,0,0,0,28.7,85.533a1.813,1.813,0,0,0,2.147-1.785V76.107a1.813,1.813,0,0,0-3.1-1.283" transform="translate(-15.736 -53.575)"/><path class="c" d="M76.107,30.751h7.641A1.813,1.813,0,0,0,85.533,28.6,16.174,16.174,0,0,0,83,22.5a1.813,1.813,0,0,0-2.761-.251l-5.41,5.438a1.813,1.813,0,0,0,1.283,3.1" transform="translate(-53.575 -15.664)"/><path class="c" d="M74.852,63.623l5.41,5.382a1.813,1.813,0,0,0,2.761-.251,16.146,16.146,0,0,0,2.538-6.107A1.813,1.813,0,0,0,83.776,60.5H76.107a1.813,1.813,0,0,0-1.283,3.1" transform="translate(-53.575 -43.629)"/><path class="c" d="M60.6,76.107v7.669a1.813,1.813,0,0,0,2.147,1.785,16.174,16.174,0,0,0,6.107-2.538,1.813,1.813,0,0,0,.251-2.761L63.7,74.824a1.813,1.813,0,0,0-3.1,1.283" transform="translate(-43.701 -53.575)"/></g></g></svg>